<?xml version="1.0" standalone="no"?>
<!DOCTYPE svg PUBLIC "-//W3C//DTD SVG 20010904//EN"
 "http://www.w3.org/TR/2001/REC-SVG-20010904/DTD/svg10.dtd">
<svg version="1.0" xmlns="http://www.w3.org/2000/svg"
 width="220.000000pt" height="220.000000pt" viewBox="0 0 220.000000 220.000000"
 preserveAspectRatio="xMidYMid meet">
<metadata>
Created by potrace 1.14, written by Peter Selinger 2001-2017
</metadata>
<g transform="translate(0.000000,220.000000) scale(0.100000,-0.100000)"
fill="#000000" stroke="none">
<path d="M13 2193 c4 -3 2 -12 -5 -20 -16 -20 -1 -30 67 -46 69 -16 89 -41 29
-35 -37 3 -39 2 -42 -29 -2 -20 1 -33 8 -33 6 0 8 -4 5 -10 -3 -6 1 -7 9 -4 9
3 16 1 16 -6 0 -6 6 -8 13 -4 6 4 9 4 5 -1 -4 -4 -3 -16 3 -26 7 -14 14 -17
27 -10 12 6 25 4 42 -6 14 -8 17 -12 8 -9 -10 3 -18 1 -18 -4 0 -6 -4 -10 -10
-10 -5 0 -7 7 -3 15 5 13 2 14 -21 4 -19 -9 -23 -15 -14 -21 8 -5 9 -8 2 -8
-16 0 -35 25 -26 35 4 5 1 5 -5 1 -7 -4 -22 -2 -34 4 -26 15 -36 6 -44 -42
l-7 -37 41 -7 c24 -4 41 -12 41 -20 0 -22 -17 -25 -59 -10 l-41 14 0 -372 c0
-215 4 -365 9 -357 5 7 13 11 19 7 5 -3 13 1 16 10 3 8 11 12 17 8 8 -4 9 -3
5 4 -3 6 3 16 15 22 19 11 20 10 14 -9 -4 -13 -2 -21 5 -21 6 0 8 -5 5 -10 -3
-6 -17 -7 -31 -4 -18 5 -24 2 -24 -10 0 -9 -4 -16 -9 -16 -5 0 -17 -7 -25 -16
-13 -13 -16 -44 -16 -179 0 -90 3 -171 6 -179 3 -9 23 -19 45 -22 62 -10 80
-41 66 -115 -8 -41 -38 -62 -83 -57 l-29 3 -2 -214 c-2 -175 1 -216 13 -228
10 -10 14 -11 14 -2 0 7 3 9 7 5 5 -4 0 -14 -11 -21 -11 -9 -20 -30 -22 -55
l-3 -40 409 0 c397 0 411 1 430 20 17 17 20 17 20 4 0 -12 6 -15 26 -10 17 5
23 3 19 -4 -4 -7 49 -10 164 -10 126 0 171 3 175 13 5 9 7 9 12 0 4 -10 49
-13 175 -13 142 0 170 2 174 15 3 8 7 21 9 29 6 19 83 2 112 -25 22 -21 54
-26 54 -8 0 8 12 9 38 4 64 -12 382 -17 382 -6 0 5 -6 16 -14 24 -11 11 -12
17 -3 26 8 8 13 76 14 224 1 117 -1 204 -3 195 -6 -20 -44 -25 -43 -5 0 6 11
64 23 127 19 92 24 151 25 297 2 173 1 181 -17 176 -15 -3 -18 1 -17 18 2 28
22 37 28 12 3 -10 5 156 6 370 1 221 -3 387 -8 387 -17 0 -19 29 -6 87 16 65
18 128 5 158 -5 11 -9 17 -9 14 -8 -58 -45 -197 -58 -211 -18 -20 -97 -26
-108 -8 -4 6 -11 7 -17 4 -6 -4 -8 1 -5 12 3 11 15 72 28 137 24 131 21 128
105 102 62 -19 83 -20 66 -3 -7 7 -12 20 -12 30 0 17 -12 18 -145 18 -138 0
-145 -1 -134 -18 16 -26 -1 -97 -23 -96 -17 1 -18 -12 -4 -34 4 -8 5 -38 1
-68 -5 -44 -10 -54 -26 -54 -17 0 -19 7 -16 63 2 57 0 62 -20 65 -19 3 -23 -4
-33 -52 -9 -45 -15 -56 -31 -56 -10 0 -19 4 -19 9 0 12 21 111 27 131 3 8 7
26 8 40 1 14 6 36 9 48 6 18 3 22 -12 22 -15 0 -21 -9 -27 -37 -11 -62 -30
-83 -75 -83 -34 0 -40 -3 -45 -25 -3 -14 -7 -36 -10 -50 -6 -26 -12 -30 -32
-17 -9 6 -8 23 2 72 7 36 16 82 19 103 l7 37 -166 0 c-160 0 -190 -6 -146 -29
14 -8 17 -19 15 -42 -5 -39 -12 -48 -24 -29 -5 8 -5 21 0 31 11 20 -12 45 -30
34 -7 -4 -14 2 -17 14 l-5 21 -611 0 c-336 0 -607 -3 -604 -7z m837 -21 c0
-10 -7 -27 -15 -38 -13 -16 -14 -16 -9 -1 6 17 -4 22 -35 18 -7 -2 -10 2 -6 8
3 6 15 11 26 11 10 0 19 5 19 10 0 6 5 10 10 10 6 0 10 -8 10 -18z m1136 8 c7
-7 3 -51 -15 -140 -14 -72 -28 -130 -31 -130 -34 1 -32 38 16 258 5 24 14 28
30 12z m-1201 -57 c-2 -10 -4 -21 -4 -25 -2 -14 -21 -9 -21 5 0 11 19 37 26
37 1 0 1 -8 -1 -17z m37 -17 c7 4 8 2 4 -4 -11 -18 -26 -14 -25 6 0 10 3 12 6
4 2 -6 10 -9 15 -6z m505 -8 c-3 -8 -6 -5 -6 6 -1 11 2 17 5 13 3 -3 4 -12 1
-19z m-550 -24 c-3 -3 -12 -4 -19 -1 -8 3 -5 6 6 6 11 1 17 -2 13 -5z m43 -2
c0 -5 -7 -9 -15 -9 -8 0 -12 4 -9 9 3 4 9 8 15 8 5 0 9 -4 9 -8z m524 -40 c-4
-9 -6 -28 -5 -41 2 -13 -2 -21 -7 -17 -5 3 -12 -1 -16 -9 -3 -8 -11 -15 -18
-15 -9 0 -9 3 2 11 11 8 12 12 3 16 -18 7 -16 24 2 17 9 -4 15 0 15 9 0 9 -7
22 -15 31 -19 18 -19 26 -1 26 8 0 17 -8 19 -17 3 -11 5 -5 6 12 1 26 3 28 12
12 6 -10 7 -26 3 -35z m-1117 -94 c-3 -8 -6 -5 -6 6 -1 11 2 17 5 13 3 -3 4
-12 1 -19z m23 -28 c11 -7 7 -10 -17 -10 -18 0 -33 5 -33 10 0 13 30 13 50 0z
m667 -156 c2 -6 -14 -18 -37 -27 -40 -15 -40 -15 -25 -44 8 -15 15 -34 15 -42
0 -9 6 -11 18 -6 29 13 55 11 60 -4 3 -10 -1 -12 -17 -8 -11 3 -19 2 -16 -3 3
-4 -2 -11 -10 -14 -14 -5 -14 -10 0 -43 21 -49 20 -49 60 -30 44 21 45 21 45
1 0 -14 -98 -66 -111 -58 -3 2 -14 25 -24 51 -10 26 -28 72 -41 100 -42 94
-42 97 13 121 50 22 64 23 70 6z m-154 -82 c24 -26 77 -160 77 -193 0 -24 -7
-32 -52 -53 -29 -14 -55 -22 -59 -18 -9 10 -99 228 -99 240 0 12 66 41 96 41
11 1 28 -7 37 -17z m-128 -160 c44 -105 51 -149 23 -140 -7 3 -35 59 -62 127
-42 102 -48 124 -36 131 8 5 18 6 21 2 4 -4 28 -58 54 -120z m-128 63 c22 -15
46 -69 35 -79 -13 -14 -9 -34 9 -39 20 -5 63 -92 53 -108 -12 -21 -32 -6 -48
35 -14 35 -22 45 -45 48 -24 4 -28 1 -26 -16 1 -12 10 -38 19 -60 20 -48 20
-46 -3 -46 -11 0 -25 13 -34 33 -37 79 -89 208 -86 210 18 12 77 36 89 36 9 1
25 -6 37 -14z m889 -20 c15 -9 21 -25 22 -57 4 -59 -24 -96 -76 -100 -36 -3
-37 -5 -46 -50 -8 -47 -30 -65 -42 -35 -4 11 14 116 42 245 4 20 9 22 42 16
20 -3 46 -12 58 -19z m157 -26 c36 -16 47 -42 36 -82 -5 -19 -16 -40 -24 -47
-10 -9 -11 -17 -4 -34 6 -13 7 -41 2 -70 -7 -44 -11 -50 -35 -53 -25 -3 -27
-2 -19 20 18 46 17 99 -1 111 -27 17 -39 -4 -41 -71 -2 -49 -4 -57 -15 -46
-17 16 -20 16 -38 -2 -22 -22 -29 -19 -30 14 -1 20 3 28 11 24 18 -6 20 0 44
117 12 58 24 111 26 118 5 15 56 16 88 1z m-1185 -49 c31 -47 26 -88 -14 -115
l-32 -22 21 -47 c17 -40 18 -49 6 -57 -8 -5 -17 -9 -20 -9 -3 0 -29 57 -57
127 -54 135 -54 143 1 143 15 0 27 5 27 11 0 23 46 2 68 -31z m1312 18 c0 -7
-10 -68 -22 -135 -21 -116 -23 -123 -46 -123 -17 0 -22 4 -18 18 2 9 15 67 27
127 12 61 27 113 33 117 16 11 26 10 26 -4z m123 -19 c55 -15 62 -38 42 -140
-9 -46 -24 -95 -32 -108 -14 -21 -20 -23 -66 -18 -28 4 -55 11 -60 16 -8 8 17
163 39 244 6 20 24 21 77 6z m181 -34 c35 -6 46 -12 46 -25 0 -16 -5 -17 -37
-9 -53 12 -53 12 -53 -16 0 -14 -4 -25 -9 -25 -23 0 4 -38 30 -44 17 -3 29
-12 29 -21 0 -13 -7 -15 -34 -10 -31 6 -34 4 -40 -22 -4 -15 -9 -36 -12 -45
-4 -14 3 -19 35 -24 30 -5 41 -11 41 -24 0 -15 -6 -16 -52 -7 -29 5 -57 13
-61 17 -5 4 1 57 12 116 32 160 31 156 45 151 7 -3 34 -9 60 -12z m-640 -172
c-4 -14 -11 -19 -25 -16 -11 3 -19 0 -19 -7 0 -7 -8 -10 -20 -7 -14 4 -25 -1
-33 -14 -6 -10 -20 -19 -29 -19 -10 0 -18 -7 -18 -16 0 -12 -7 -15 -26 -11
-16 3 -28 0 -31 -8 -2 -8 -11 -16 -19 -19 -20 -8 -3 21 31 53 l25 23 0 -23 c0
-22 2 -21 17 9 8 18 21 32 27 31 6 -1 19 1 29 6 15 6 16 10 5 17 -9 7 -6 8 10
5 13 -3 35 1 49 8 32 17 34 16 27 -12z m231 -69 c0 -16 16 -34 25 -29 4 3 7
-2 6 -12 -2 -9 -12 -17 -24 -18 -17 -1 -19 1 -11 12 8 9 8 13 0 13 -6 0 -11 8
-11 17 0 9 -8 26 -17 37 -18 20 -18 20 7 4 14 -8 25 -19 25 -24z m-1370 -6
c21 -9 28 -9 35 1 4 8 13 11 18 7 8 -4 6 -13 -6 -26 -18 -22 -43 -27 -39 -8 1
7 -8 14 -20 16 -16 2 -23 -2 -23 -12 0 -9 -3 -16 -7 -17 -5 0 -16 -2 -26 -4
-9 -2 -14 1 -11 6 3 6 0 17 -7 25 -10 13 -8 14 14 10 15 -3 27 0 27 5 0 12 14
11 45 -3z m1345 3 c0 -14 -29 -21 -36 -9 -4 6 -3 8 4 4 6 -3 13 -2 17 4 8 12
15 13 15 1z m-1221 -32 c12 -13 25 -18 33 -13 7 4 10 4 6 -1 -4 -4 -3 -15 2
-24 5 -11 5 -23 -2 -32 -8 -11 -9 -11 -4 3 3 10 1 20 -4 23 -6 4 -10 1 -10 -5
0 -6 -4 -9 -10 -5 -5 3 -6 13 -3 22 5 12 3 14 -7 8 -9 -6 -11 -4 -5 5 7 12 2
11 -55 -8 -9 -3 -8 1 4 10 10 8 16 20 12 26 -13 21 22 13 43 -9z m831 -23 c0
-3 -4 -8 -10 -11 -5 -3 -10 -1 -10 4 0 6 5 11 10 11 6 0 10 -2 10 -4z m-31
-28 c14 5 14 4 -1 -12 -10 -9 -23 -14 -29 -10 -8 4 -9 3 -5 -4 4 -7 2 -12 -3
-12 -6 0 -9 10 -7 23 3 12 5 24 5 27 1 2 6 -1 12 -7 6 -6 19 -9 28 -5z m471 8
c0 -2 -7 -7 -16 -10 -8 -3 -12 -2 -9 4 6 10 25 14 25 6z m554 -87 c-9 -10 -21
-16 -25 -13 -15 9 -10 -14 7 -31 10 -9 13 -22 9 -33 -6 -15 -8 -15 -15 4 -5
12 -13 25 -19 29 -7 4 -4 20 10 46 17 34 23 38 35 28 13 -10 12 -14 -2 -30z
m-1054 -19 c0 -9 -31 -22 -37 -16 -3 2 -2 14 2 26 5 17 10 19 21 9 8 -6 14
-15 14 -19z m18 -50 c2 -17 0 -21 -6 -12 -7 11 -12 10 -26 -3 -14 -15 -16 -15
-16 -1 0 9 5 16 11 16 6 0 8 7 5 16 -4 11 -1 14 12 12 10 -2 18 -14 20 -28z
m988 -35 c-1 -29 -16 -35 -16 -7 0 16 8 32 16 32 1 0 1 -11 0 -25z m-1005 -19
c-9 -11 -9 -15 1 -18 7 -3 5 -7 -7 -12 -11 -4 -16 -4 -12 0 4 4 1 14 -6 22 -8
11 -8 14 0 9 6 -4 14 -3 18 3 3 5 9 10 12 10 3 0 0 -6 -6 -14z m553 -66 l-32
-28 19 -28 c10 -16 27 -32 39 -36 11 -4 20 -15 20 -25 1 -10 12 -31 25 -48
l24 -29 30 22 c31 23 51 28 51 14 0 -10 -80 -82 -91 -82 -3 0 -44 48 -89 107
-82 104 -83 107 -62 121 11 7 33 25 48 39 20 18 29 22 38 13 8 -8 3 -19 -20
-40z m484 20 c-10 -15 -9 -23 5 -38 16 -17 16 -21 3 -35 -8 -8 -12 -17 -9 -21
4 -3 1 -6 -5 -6 -15 0 -15 23 0 38 9 9 7 13 -8 18 -20 8 -34 23 -34 38 0 4 7
6 14 3 9 -4 17 2 21 14 4 10 11 17 16 14 5 -4 3 -14 -3 -25z m-1018 6 c0 -2
-7 -7 -16 -10 -8 -3 -12 -2 -9 4 6 10 25 14 25 6z m1059 -120 c-13 -14 -11
-49 3 -40 7 4 8 3 4 -5 -9 -14 -31 0 -46 30 -8 14 -6 16 12 11 19 -5 20 -2 14
24 -7 27 -7 28 8 9 9 -12 11 -24 5 -29z m-439 19 c0 -7 -6 -18 -14 -24 -17
-14 -41 10 -25 26 14 14 39 12 39 -2z m-178 -25 c-1 -6 2 -9 7 -5 12 7 33 -29
23 -40 -4 -5 -2 -5 4 -2 6 3 20 -7 32 -22 16 -22 18 -31 9 -41 -9 -10 -9 -11
1 -6 6 4 19 1 27 -8 30 -30 14 -73 -40 -106 -20 -12 -37 -21 -39 -19 -1 2 -20
27 -43 54 -68 84 -113 145 -113 154 0 11 30 37 64 55 31 16 73 7 68 -14z
m-1337 -60 c13 0 36 -10 51 -23 22 -20 25 -28 19 -55 -4 -18 -16 -42 -27 -52
-17 -16 -19 -22 -9 -34 13 -15 6 -126 -8 -126 -25 1 -33 20 -26 65 5 35 3 50
-7 56 -22 14 -36 10 -44 -13 -11 -31 -11 -34 -13 -63 -1 -15 -7 -25 -16 -25
-23 0 -28 23 -14 71 7 24 13 56 15 71 1 15 8 52 14 83 9 43 15 55 27 51 8 -3
25 -6 38 -6z m1196 -52 c67 -84 99 -128 99 -138 0 -5 8 -13 18 -19 16 -9 16
-11 1 -26 -15 -15 -19 -13 -52 32 -20 26 -56 74 -81 106 -24 32 -42 65 -39 73
8 22 17 17 54 -28z m-1034 9 c-2 -7 -15 -67 -28 -135 -19 -102 -26 -122 -41
-122 -23 0 -23 13 3 141 26 132 24 129 50 129 13 0 19 -5 16 -13z m108 -13
c67 -15 76 -44 49 -149 -8 -33 -15 -67 -15 -77 0 -33 -35 -51 -86 -44 -26 3
-51 10 -55 14 -5 5 3 65 17 135 14 70 25 129 25 133 0 3 8 3 18 0 9 -3 31 -8
47 -12z m208 -40 c15 -3 27 -12 27 -21 0 -12 -8 -14 -44 -9 -42 7 -44 6 -48
-21 -3 -15 -7 -34 -9 -42 -3 -10 6 -17 26 -21 17 -3 31 -12 33 -22 3 -14 -3
-16 -31 -11 -33 5 -34 4 -44 -36 -12 -46 -12 -47 40 -56 38 -7 48 -21 22 -31
-17 -7 -115 14 -115 24 0 4 11 61 25 127 13 66 25 123 25 128 0 7 28 4 93 -9z
m664 -23 c14 -20 21 -42 17 -53 -3 -10 -1 -18 5 -18 21 0 26 -4 65 -43 37 -37
38 -41 21 -53 -16 -12 -21 -9 -46 26 -23 31 -34 39 -57 37 -23 -2 -28 -6 -24
-22 3 -11 18 -35 34 -54 23 -26 27 -36 16 -42 -7 -5 -16 -9 -19 -9 -6 0 -99
115 -99 123 0 2 -16 22 -36 43 l-35 39 23 18 c13 9 32 24 43 33 31 23 66 13
92 -25z m-154 -82 c56 -72 60 -98 23 -132 l-24 -23 29 -38 c21 -29 26 -43 18
-52 -8 -9 -19 -3 -47 29 -52 58 -107 128 -120 153 -11 21 0 37 43 62 18 9 71
11 78 1z m-943 -228 c3 -2 -5 0 -17 3 -18 6 -22 4 -17 -8 4 -11 1 -16 -10 -16
-9 0 -16 5 -16 10 0 19 -29 10 -35 -11 -6 -16 -9 -18 -15 -8 -5 7 -6 17 -3 22
4 6 -6 7 -23 3 l-29 -7 24 17 c13 9 39 17 57 16 19 -1 34 4 34 10 0 6 10 3 23
-8 12 -10 24 -21 27 -23z m-131 -43 c12 -3 12 -6 -2 -11 -9 -3 -17 -2 -17 3 0
6 -4 10 -10 10 -5 0 -7 -7 -3 -16 5 -13 3 -15 -13 -7 -10 6 -25 8 -33 5 -8 -3
-11 0 -7 7 4 6 16 11 26 11 10 0 22 5 26 11 4 7 9 7 13 2 3 -6 13 -12 20 -15z
m-69 -47 c0 -5 -3 -16 -6 -25 -5 -12 -9 -13 -25 -3 -24 15 -24 24 -1 30 28 8
32 7 32 -2z m985 -77 c19 -10 31 -11 33 -5 6 18 22 12 22 -8 0 -10 -7 -21 -15
-25 -8 -3 -15 -1 -15 5 0 6 -8 9 -17 8 -26 -3 -53 11 -53 27 0 18 8 18 45 -2z
m-55 -4 c0 -5 -4 -10 -9 -10 -5 0 -13 -9 -16 -20 -7 -21 -35 -28 -35 -9 0 5 4
7 10 4 5 -3 12 6 16 20 6 24 34 36 34 15z m160 -14 c0 -8 15 -17 35 -20 19 -4
35 -11 35 -15 0 -15 -39 -19 -51 -5 -6 7 -14 13 -17 12 -4 -1 -15 2 -24 6 -14
6 -15 11 -5 22 16 17 27 18 27 0z m-230 -14 c0 -11 -8 -18 -20 -19 -25 -2 -26
12 -2 26 22 14 22 14 22 -7z"/>
<path d="M698 1653 c-25 -6 -23 -17 17 -112 45 -105 44 -104 60 -91 8 7 19 9
24 6 5 -4 13 -1 17 5 4 8 3 9 -4 5 -8 -4 -12 0 -12 11 0 36 -63 184 -78 182
-4 -1 -15 -3 -24 -6z"/>
<path d="M430 1543 c0 -14 35 -93 41 -93 3 0 13 6 23 13 17 12 17 18 7 50 -11
31 -17 37 -42 37 -16 0 -29 -3 -29 -7z"/>
<path d="M1354 1543 c-24 -4 -34 -29 -34 -80 0 -26 4 -33 19 -33 29 0 42 24
40 74 -2 25 -3 45 -3 45 -1 -1 -11 -4 -22 -6z"/>
<path d="M1500 1490 c-6 -10 -10 -32 -10 -49 0 -26 4 -31 25 -31 26 0 40 28
33 71 -4 28 -35 34 -48 9z"/>
<path d="M278 1480 c-15 -9 -15 -14 5 -53 27 -53 36 -59 55 -40 14 13 14 20 1
56 -15 43 -32 54 -61 37z"/>
<path d="M1743 1350 l-20 -100 24 -6 c14 -4 28 -3 32 2 12 13 43 183 36 194
-3 6 -17 10 -29 10 -21 0 -25 -8 -43 -100z"/>
<path d="M1493 744 c4 -4 2 -13 -4 -20 -11 -13 1 -46 28 -72 7 -8 10 -18 7
-24 -4 -7 -2 -8 5 -4 6 4 14 0 17 -9 4 -8 18 -28 33 -44 23 -24 30 -27 44 -16
9 7 17 18 17 26 0 23 -103 151 -130 161 -13 5 -21 6 -17 2z"/>
<path d="M196 629 c-11 -57 -8 -69 19 -69 18 0 26 7 31 24 10 41 1 71 -22 74
-17 2 -23 -4 -28 -29z"/>
<path d="M465 597 c-10 -26 -35 -160 -35 -183 0 -14 4 -23 9 -19 5 3 12 1 16
-5 13 -21 33 19 50 99 9 45 14 88 12 95 -7 18 -47 27 -52 13z"/>
<path d="M1272 555 c-12 -22 47 -88 65 -73 19 15 16 52 -5 71 -23 21 -48 22
-60 2z"/>
<path d="M1143 463 c-20 -7 -16 -21 19 -64 l33 -41 17 22 c17 21 17 23 -8 56
-26 33 -36 38 -61 27z"/>
<path d="M1636 2169 c-10 -51 -8 -59 19 -59 19 0 26 7 34 38 15 51 15 52 -18
52 -24 0 -29 -5 -35 -31z"/>
<path d="M1815 2177 c-2 -6 -6 -29 -10 -49 -6 -36 -4 -38 20 -38 18 0 28 7 36
27 5 14 9 33 7 41 -4 20 -47 36 -53 19z"/>
<path d="M2075 2108 c-3 -13 -14 -58 -24 -101 l-19 -79 22 -7 c11 -5 26 -6 33
-4 6 2 19 47 29 99 16 83 16 97 3 105 -23 15 -38 10 -44 -13z"/>
<path d="M24 641 c-10 -47 -9 -50 13 -54 27 -5 38 7 46 47 7 40 -1 56 -27 56
-18 0 -24 -8 -32 -49z"/>
<path d="M1646 15 c-4 -11 1 -15 21 -15 14 0 24 1 22 3 -2 1 -11 8 -20 15 -14
10 -18 10 -23 -3z"/>
</g>
</svg>
